<?xml version="1.0" standalone="no"?>
<!DOCTYPE svg PUBLIC "-//W3C//DTD SVG 20010904//EN"
 "http://www.w3.org/TR/2001/REC-SVG-20010904/DTD/svg10.dtd">
<svg version="1.0" xmlns="http://www.w3.org/2000/svg"
 width="980.000000pt" height="1018.000000pt" viewBox="0 0 980.000000 1018.000000"
 preserveAspectRatio="xMidYMid meet">

<g transform="translate(0.000000,1018.000000) scale(0.100000,-0.100000)"
fill="#ffffff" stroke="none">
<path d="M740 9967 c-121 -14 -255 -90 -325 -185 -19 -26 -48 -82 -65 -124
l-30 -77 0 -4325 0 -4324 24 -71 c59 -175 162 -278 324 -322 64 -18 174 -19
3042 -19 2130 0 2986 3 3015 11 130 36 242 125 298 239 l32 64 5 201 c4 171 7
200 20 197 8 -2 16 -7 18 -11 3 -9 143 -206 263 -371 34 -47 96 -132 137 -190
107 -152 116 -160 173 -160 43 0 50 4 90 48 24 27 83 104 131 173 49 68 156
218 239 334 185 257 272 389 307 463 l27 57 5 2651 c4 2324 7 2653 20 2670 8
10 58 64 111 119 53 55 158 168 235 250 76 83 188 204 250 270 176 189 251
287 312 410 88 176 110 278 124 580 17 361 -4 576 -72 745 -61 155 -151 289
-268 402 -130 126 -245 198 -387 245 -118 39 -162 45 -376 50 -194 5 -219 4
-253 -12 -68 -32 -92 -98 -62 -170 26 -60 54 -67 302 -75 131 -5 229 -12 242
-19 11 -6 29 -11 39 -11 29 0 162 -71 228 -122 130 -100 216 -211 278 -358 56
-133 62 -185 62 -540 -1 -313 -1 -315 -28 -402 -64 -208 -137 -321 -357 -553
-122 -129 -280 -302 -324 -357 -42 -52 -66 -61 -66 -25 -2 974 -6 1173 -24
1222 -32 88 -69 130 -143 167 l-68 33 -540 3 c-297 1 -546 4 -552 7 -10 3 -13
89 -14 382 0 261 -4 400 -13 449 -39 219 -192 356 -429 384 -108 13 -5842 10
-5957 -3z m4541 -253 l64 -6 752 -752 753 -752 2 -3069 c2 -1689 0 -3124 -3
-3191 -6 -113 -9 -127 -43 -197 -93 -194 -329 -351 -581 -387 -101 -14 -5407
-14 -5459 1 -46 13 -117 76 -143 127 -17 36 -18 170 -18 4063 l0 4025 27 41
c39 59 88 86 172 94 91 8 4392 11 4477 3z m1501 -37 c69 -53 69 -55 66 -577
l-3 -465 -280 275 c-154 152 -400 393 -547 536 -148 144 -268 263 -268 265 0
2 224 2 497 -1 l498 -5 37 -28z m1408 -1202 c13 -8 14 -1603 1 -1637 -5 -13
-197 -214 -426 -448 -230 -234 -458 -470 -508 -525 -50 -55 -95 -101 -99 -103
-4 -2 -8 609 -8 1357 l0 1361 208 3 c300 5 819 0 832 -8z m4 -2097 c3 -13 6
-782 6 -1710 0 -1572 -1 -1687 -17 -1690 -9 -2 -246 -1 -527 2 l-511 5 -5
1155 c-3 635 -3 1165 -1 1178 2 14 129 151 325 350 357 363 539 551 636 660
35 39 69 72 76 72 6 0 14 -10 18 -22z m-4 -4203 c0 -450 -2 -510 -16 -538 -17
-32 -206 -310 -244 -357 l-20 -25 -47 50 c-27 28 -78 83 -114 123 -36 39 -71
72 -77 72 -13 0 -174 -179 -199 -221 -10 -16 -23 -28 -29 -27 -6 2 -75 98
-154 215 l-142 212 2 492 c0 271 3 496 6 501 3 4 237 8 520 8 l514 0 0 -505z
m-7514 -1072 l59 -28 1930 -3 c1062 -1 1956 -2 1988 -2 l57 0 0 -150 0 -150
-1984 2 -1984 3 -44 30 c-71 51 -88 91 -88 218 0 59 2 107 4 107 2 0 30 -12
62 -27z"/>
<path d="M1572 8683 c-18 -7 -42 -57 -42 -88 0 -14 11 -37 25 -50 l24 -25 505
0 506 0 20 40 c26 51 25 62 -6 99 l-26 31 -496 -1 c-274 0 -503 -3 -510 -6z"/>
<path d="M1536 8298 c-13 -19 -16 -62 -16 -268 0 -206 3 -249 16 -268 l15 -22
518 0 c481 0 519 1 533 18 13 14 16 62 21 257 6 267 0 305 -46 305 -14 0 -103
-28 -198 -61 -96 -34 -205 -71 -242 -82 l-68 -21 -92 32 c-51 17 -157 54 -237
82 -80 27 -155 50 -167 50 -12 0 -29 -10 -37 -22z"/>
<path d="M2005 6437 c-14 -19 -35 -69 -47 -113 -20 -72 -22 -101 -22 -344 0
-277 10 -403 59 -747 73 -510 158 -730 382 -997 85 -101 258 -234 278 -214 3
3 17 45 31 94 99 346 367 616 699 705 121 32 356 32 480 0 166 -43 301 -127
439 -272 127 -132 209 -280 262 -471 8 -32 21 -58 28 -58 22 0 148 95 221 166
171 167 285 377 354 650 96 385 165 1189 122 1434 -17 92 -52 174 -82 190 -68
37 -380 -64 -629 -204 -54 -30 -92 -46 -105 -42 -11 3 -78 26 -150 50 -449
155 -1009 153 -1445 -6 -156 -56 -146 -56 -225 -7 -178 109 -475 219 -590 219
-27 0 -39 -7 -60 -33z m1070 -855 c109 -52 169 -146 169 -267 0 -123 -62 -218
-178 -275 -67 -32 -173 -32 -237 0 -75 38 -116 78 -148 142 -26 51 -31 73 -31
132 0 121 56 212 162 265 85 43 176 44 263 3z m1314 8 c112 -51 181 -151 181
-265 0 -92 -24 -151 -89 -216 -63 -63 -124 -89 -206 -89 -105 0 -205 60 -262
157 -30 52 -42 154 -24 219 23 86 103 172 186 202 52 18 165 14 214 -8z"/>
<path d="M3523 4366 c-104 -34 -183 -98 -256 -205 -52 -77 -157 -293 -157
-322 0 -48 258 -99 500 -99 74 0 182 7 240 15 112 15 258 49 273 64 11 11 -68
199 -122 291 -97 163 -225 256 -366 265 -45 3 -85 0 -112 -9z"/>
<path d="M1597 3470 c-48 -38 -44 -135 7 -162 15 -8 549 -11 1995 -10 1912 1
1975 1 2000 20 47 35 52 93 10 145 l-20 27 -1983 0 c-1982 0 -1983 0 -2009
-20z"/>
<path d="M2538 3063 l-28 -4 0 -129 0 -129 33 -5 c17 -2 466 -3 997 -3 l965 2
3 131 3 131 -48 7 c-50 7 -1878 6 -1925 -1z"/>
<path d="M1579 2969 c-37 -40 -39 -87 -5 -126 l24 -28 240 0 c240 0 240 0 266
24 34 32 40 54 26 96 -21 63 -28 65 -288 65 l-234 0 -29 -31z"/>
<path d="M4886 2969 c-35 -42 -36 -97 0 -130 l26 -24 317 -3 c196 -2 327 1
344 7 14 6 34 25 43 42 13 27 14 39 5 70 -21 70 -17 69 -382 69 l-327 0 -26
-31z"/>
<path d="M1646 2523 c-90 -14 -124 -118 -54 -167 20 -14 117 -16 971 -16 631
0 955 3 968 10 28 16 51 67 44 99 -3 16 -17 39 -31 52 l-26 24 -921 1 c-507 1
-935 -1 -951 -3z"/>
</g>
</svg>
